
        <svg xmlns="http://www.w3.org/2000/svg" xmlns:xlink="http://www.w3.org/1999/xlink" version="1.1" width="3229.007633587786" 
        height="641.2213740458014" viewBox="0 0 3229.007633587786 641.2213740458014">
			
			<g transform="scale(11.450381679389313) translate(10, 10)">
				<defs id="SvgjsDefs6421"></defs><g id="SvgjsG6422" featureKey="symbolFeature-0" transform="matrix(-0.6228373373572887,0,0,-0.6228373373572887,55.20414965122581,45.965397397716615)" fill="#24872b"><g xmlns="http://www.w3.org/2000/svg"><polygon points="61,23.8 53.1,16 23.2,45.9 11,36 11,73.8  "></polygon></g><g xmlns="http://www.w3.org/2000/svg"><polygon points="30.2,65.4 38.1,73.3 68,43.4 79,54.5 79,16.7  "></polygon></g></g><g id="SvgjsG6423" featureKey="nameFeature-0" transform="matrix(1.0024256081075087,0,0,1.0024256081075087,59.995148783784984,-8.875997133260995)" fill="#FFFFFF"><path d="M2.48 40 c-0.28 0 -0.48 -0.24 -0.48 -0.52 l0 -23.96 c0 -0.28 0.2 -0.52 0.48 -0.52 l9.8 0 c3.04 0 5.44 0.76 7.12 2.32 c2.48 2.24 3.32 6.48 2.12 9.6 c-0.44 1.12 -1.2 2.16 -2.16 2.92 c-3.24 2.52 -7.28 2.28 -11.16 2.28 l0 7.36 c0 0.28 -0.24 0.52 -0.52 0.52 l-5.2 0 z M8.2 26.560000000000002 c0 0 5.04 0.56 6.8 -0.6 c0.68 -0.44 1.08 -1.52 1.08 -2.32 c-0.04 -0.88 -0.48 -1.8 -1.2 -2.36 c-0.76 -0.64 -2.64 -0.84 -3.6 -0.84 l-3.08 0.08 l0 6.04 z M27.377 40 c-0.28 0 -0.52 -0.24 -0.52 -0.52 l0 -23.96 c0 -0.28 0.24 -0.52 0.52 -0.52 l5.2 0 c0.28 0 0.52 0.24 0.52 0.52 l0 23.96 c0 0.28 -0.24 0.52 -0.52 0.52 l-5.2 0 z M38.354000000000006 40 c-0.28 0 -0.52 -0.24 -0.52 -0.52 l0 -23.96 c0 -0.28 0.24 -0.52 0.52 -0.52 l5.2 0 c0.28 0 0.52 0.24 0.52 0.52 l0 7.08 l7.24 -7.44 c0.12 -0.08 0.24 -0.16 0.4 -0.16 l6.04 0 c0.2 0 0.4 0.12 0.48 0.28 c0.08 0.2 0.04 0.4 -0.08 0.56 l-8.08 8.64 l9 14.68 c0.08 0.08 0.12 0.2 0.12 0.32 c0 0.28 -0.24 0.52 -0.52 0.52 l-6.24 0 c-0.16 0 -0.32 -0.08 -0.4 -0.24 l-6.6 -11.16 l-1.36 1.2 l0 9.68 c0 0.28 -0.24 0.52 -0.52 0.52 l-5.2 0 z  M64.451 40 c-0.28 0 -0.52 -0.24 -0.52 -0.52 l0 -23.96 c0 -0.28 0.24 -0.52 0.52 -0.52 l9.56 0 c2.64 0 4.4 0.56 5.96 1.72 c2.16 1.56 3.04 4.52 2.04 7.04 c-0.52 1.28 -1.4 1.96 -2.6 2.6 c1.72 0.24 2.8 1.36 3.44 2.16 c0.92 1.2 1.4 2.64 1.4 4.32 c0 2.2 -0.88 4 -2.56 5.28 c-1.64 1.24 -3.88 1.88 -6.64 1.88 l-10.6 0 z M69.81099999999999 24.16 l3.92 0 c0.8 0 1.44 -0.16 1.88 -0.52 c0.4 -0.36 0.6 -0.84 0.6 -1.48 c0 -0.6 -0.2 -1.08 -0.6 -1.4 c-0.4 -0.36 -1 -0.52 -1.72 -0.52 l-4.08 0 l0 3.92 z M69.81099999999999 35.08 l4.68 0 c1.2 0 2.12 -0.24 2.8 -0.72 c0.6 -0.44 0.92 -1.04 0.92 -1.88 c0 -0.76 -0.32 -1.32 -0.92 -1.76 c-0.64 -0.44 -1.52 -0.68 -2.64 -0.68 l-4.84 0 l0 5.04 z M88.988 40 l0 -23.96 c0 -1 0.2 -1.2 0.52 -1.2 l17.52 0 c0.28 0 0.52 0.2 0.52 0.48 l0 4.52 c0 0.28 -0.24 0.52 -0.52 0.52 l-11.84 0 l0 4.16 l7.48 0 c0.28 0 0.52 0.24 0.52 0.52 l0 4.48 c0 0.28 -0.24 0.52 -0.52 0.52 l-7.48 0 l0 4.28 l11.8 0 c0.28 0 0.52 0.24 0.52 0.52 l0 4.48 c0 0.28 -0.24 0.52 -0.52 0.52 l-17.48 0 c-0.32 0 -0.52 -0.24 -0.52 0.16 z M118.765 40 c-0.28 0 -0.48 -0.24 -0.48 -0.52 l0 -18.88 l-5.48 0 c-0.28 0 -0.52 -0.2 -0.52 -0.48 l0 -4.6 c0 -0.28 0.24 -0.52 0.52 -0.52 l17.16 0 c0.32 0 0.52 0.24 0.52 0.52 l0 4.6 c0 0.28 -0.2 0.48 -0.52 0.48 l-5.48 0 l0 18.88 c0 0.28 -0.24 0.52 -0.52 0.52 l-5.2 0 z M141.70199999999997 40 c-0.28 0 -0.48 -0.24 -0.48 -0.52 l0 -18.88 l-5.48 0 c-0.28 0 -0.52 -0.2 -0.52 -0.48 l0 -4.6 c0 -0.28 0.24 -0.52 0.52 -0.52 l17.16 0 c0.32 0 0.52 0.24 0.52 0.52 l0 4.6 c0 0.28 -0.2 0.48 -0.52 0.48 l-5.48 0 l0 18.88 c0 0.28 -0.24 0.52 -0.52 0.52 l-5.2 0 z M158.159 40 l0 -23.96 c0 -1 0.2 -1.2 0.52 -1.2 l17.52 0 c0.28 0 0.52 0.2 0.52 0.48 l0 4.52 c0 0.28 -0.24 0.52 -0.52 0.52 l-11.84 0 l0 4.16 l7.48 0 c0.28 0 0.52 0.24 0.52 0.52 l0 4.48 c0 0.28 -0.24 0.52 -0.52 0.52 l-7.48 0 l0 4.28 l11.8 0 c0.28 0 0.52 0.24 0.52 0.52 l0 4.48 c0 0.28 -0.24 0.52 -0.52 0.52 l-17.48 0 c-0.32 0 -0.52 -0.24 -0.52 0.16 z M181.976 40 c-0.32 0 -0.52 -0.24 -0.52 -0.52 l0 -23.96 c0 -0.28 0.2 -0.52 0.52 -0.52 l9.76 0 c3.04 0 5.44 0.76 7.12 2.32 c2.48 2.24 3.32 6.48 2.12 9.6 c-0.44 1.12 -1.2 2.16 -2.16 2.92 c-0.56 0.44 -1.16 0.76 -1.76 1.08 c1.72 2.72 4.32 8.24 4.32 8.24 c0.04 0.08 0.12 0.2 0.12 0.32 c0 0.28 -0.24 0.52 -0.52 0.52 l-5.92 0 c-0.16 0 -0.36 -0.12 -0.44 -0.28 l-3.48 -7.64 c-1.24 0.08 -2.2 0.04 -3.48 0.04 l0 7.36 c0 0.28 -0.24 0.52 -0.52 0.52 l-5.16 0 z M187.65599999999998 26.560000000000002 c0 0 5.04 0.56 6.8 -0.6 c0.68 -0.44 1.08 -1.52 1.08 -2.32 c-0.04 -0.88 -0.48 -1.8 -1.2 -2.36 c-0.76 -0.64 -2.64 -0.84 -3.6 -0.84 l-3.08 0.08 l0 6.04 z"></path></g>
			</g>
		</svg>
	